<?xml version="1.0" encoding="UTF-8" standalone="no"?>
<!DOCTYPE svg PUBLIC "-//W3C//DTD SVG 1.1//EN"
 "http://www.w3.org/Graphics/SVG/1.1/DTD/svg11.dtd">
<!-- Generated by graphviz version 2.40.1 (20161225.0304)
 -->
<!-- Title: dependencies Pages: 1 -->
<svg width="987pt" height="284pt"
 viewBox="0.00 0.00 987.00 284.00" xmlns="http://www.w3.org/2000/svg" xmlns:xlink="http://www.w3.org/1999/xlink">
<g id="graph0" class="graph" transform="scale(1 1) rotate(0) translate(4 280)">
<title>dependencies</title>
<polygon fill="#ffffff" stroke="transparent" points="-4,4 -4,-280 983,-280 983,4 -4,4"/>
<text text-anchor="start" x="468.5091" y="-42.4" font-family="sans-serif" font-weight="bold" font-size="14.00" fill="#000000">Legend</text>
<polygon fill="#ffffb3" stroke="transparent" points="255.5,-10 255.5,-30 275.5,-30 275.5,-10 255.5,-10"/>
<text text-anchor="start" x="279.129" y="-15.4" font-family="sans-serif" font-size="14.00" fill="#000000"> &#160;Declarations</text>
<polygon fill="#8dd3c7" stroke="transparent" points="368.5,-10 368.5,-30 388.5,-30 388.5,-10 368.5,-10"/>
<text text-anchor="start" x="392.2251" y="-15.4" font-family="sans-serif" font-size="14.00" fill="#000000"> &#160;Module</text>
<polygon fill="#80b1d3" stroke="transparent" points="454.5,-10 454.5,-30 474.5,-30 474.5,-10 454.5,-10"/>
<text text-anchor="start" x="478.2812" y="-15.4" font-family="sans-serif" font-size="14.00" fill="#000000"> &#160;Bootstrap</text>
<polygon fill="#fdb462" stroke="transparent" points="551.5,-10 551.5,-30 571.5,-30 571.5,-10 551.5,-10"/>
<text text-anchor="start" x="575.1732" y="-15.4" font-family="sans-serif" font-size="14.00" fill="#000000"> &#160;Providers</text>
<polygon fill="#fb8072" stroke="transparent" points="647.5,-10 647.5,-30 667.5,-30 667.5,-10 647.5,-10"/>
<text text-anchor="start" x="671.2258" y="-15.4" font-family="sans-serif" font-size="14.00" fill="#000000"> &#160;Exports</text>
<g id="clust1" class="cluster">
<title>cluster_SharedModule</title>
<polygon fill="none" stroke="#000000" stroke-dasharray="1,5" points="8,-70 8,-268 971,-268 971,-70 8,-70"/>
</g>
<g id="clust2" class="cluster">
<title>cluster_SharedModule_declarations</title>
<polygon fill="none" stroke="#000000" points="194,-78 194,-130 958,-130 958,-78 194,-78"/>
</g>
<g id="clust8" class="cluster">
<title>cluster_SharedModule_imports</title>
<polygon fill="none" stroke="#000000" points="26,-78 26,-130 186,-130 186,-78 26,-78"/>
</g>
<g id="clust9" class="cluster">
<title>cluster_SharedModule_exports</title>
<polygon fill="none" stroke="#000000" points="16,-208 16,-260 963,-260 963,-208 16,-208"/>
</g>
<!-- CapitalizePipe -->
<g id="node1" class="node">
<title>CapitalizePipe</title>
<polygon fill="#ffffb3" stroke="#000000" points="949.6458,-122 852.3542,-122 852.3542,-86 949.6458,-86 949.6458,-122"/>
<text text-anchor="middle" x="901" y="-99.8" font-family="Times,serif" font-size="14.00" fill="#000000">CapitalizePipe</text>
</g>
<!-- SharedModule -->
<g id="node6" class="node">
<title>SharedModule</title>
<polygon fill="#8dd3c7" stroke="#000000" points="530.4231,-187 527.4231,-191 506.4231,-191 503.4231,-187 431.5769,-187 431.5769,-151 530.4231,-151 530.4231,-187"/>
<text text-anchor="middle" x="481" y="-164.8" font-family="Times,serif" font-size="14.00" fill="#000000">SharedModule</text>
</g>
<!-- CapitalizePipe&#45;&gt;SharedModule -->
<g id="edge1" class="edge">
<title>CapitalizePipe&#45;&gt;SharedModule</title>
<path fill="none" stroke="#000000" d="M901,-122.2222C901,-140.8285 901,-167 901,-167 901,-167 540.4144,-167 540.4144,-167"/>
<polygon fill="#000000" stroke="#000000" points="540.4144,-163.5001 530.4144,-167 540.4144,-170.5001 540.4144,-163.5001"/>
</g>
<!-- EnDatePipe -->
<g id="node2" class="node">
<title>EnDatePipe</title>
<polygon fill="#ffffb3" stroke="#000000" points="834.3669,-122 751.6331,-122 751.6331,-86 834.3669,-86 834.3669,-122"/>
<text text-anchor="middle" x="793" y="-99.8" font-family="Times,serif" font-size="14.00" fill="#000000">EnDatePipe</text>
</g>
<!-- EnDatePipe&#45;&gt;SharedModule -->
<g id="edge2" class="edge">
<title>EnDatePipe&#45;&gt;SharedModule</title>
<path fill="none" stroke="#000000" d="M770.5696,-122.0336C770.5696,-139.0597 770.5696,-162 770.5696,-162 770.5696,-162 540.4498,-162 540.4498,-162"/>
<polygon fill="#000000" stroke="#000000" points="540.4498,-158.5001 530.4498,-162 540.4497,-165.5001 540.4498,-158.5001"/>
</g>
<!-- FormControlErrorsDirective -->
<g id="node3" class="node">
<title>FormControlErrorsDirective</title>
<polygon fill="#ffffb3" stroke="#000000" points="733.1741,-122 556.8259,-122 556.8259,-86 733.1741,-86 733.1741,-122"/>
<text text-anchor="middle" x="645" y="-99.8" font-family="Times,serif" font-size="14.00" fill="#000000">FormControlErrorsDirective</text>
</g>
<!-- FormControlErrorsDirective&#45;&gt;SharedModule -->
<g id="edge3" class="edge">
<title>FormControlErrorsDirective&#45;&gt;SharedModule</title>
<path fill="none" stroke="#000000" d="M561.375,-122.2396C561.375,-137.5706 561.375,-157 561.375,-157 561.375,-157 540.5298,-157 540.5298,-157"/>
<polygon fill="#000000" stroke="#000000" points="540.5298,-153.5001 530.5298,-157 540.5298,-160.5001 540.5298,-153.5001"/>
</g>
<!-- SpinnerComponent -->
<g id="node4" class="node">
<title>SpinnerComponent</title>
<polygon fill="#ffffb3" stroke="#000000" points="538.3809,-122 413.6191,-122 413.6191,-86 538.3809,-86 538.3809,-122"/>
<text text-anchor="middle" x="476" y="-99.8" font-family="Times,serif" font-size="14.00" fill="#000000">SpinnerComponent</text>
</g>
<!-- SpinnerComponent&#45;&gt;SharedModule -->
<g id="edge4" class="edge">
<title>SpinnerComponent&#45;&gt;SharedModule</title>
<path fill="none" stroke="#000000" d="M481,-122.1061C481,-122.1061 481,-140.991 481,-140.991"/>
<polygon fill="#000000" stroke="#000000" points="477.5001,-140.9909 481,-150.991 484.5001,-140.991 477.5001,-140.9909"/>
</g>
<!-- TextTypingAnimationDirective -->
<g id="node5" class="node">
<title>TextTypingAnimationDirective</title>
<polygon fill="#ffffb3" stroke="#000000" points="396.0674,-122 201.9326,-122 201.9326,-86 396.0674,-86 396.0674,-122"/>
<text text-anchor="middle" x="299" y="-99.8" font-family="Times,serif" font-size="14.00" fill="#000000">TextTypingAnimationDirective</text>
</g>
<!-- TextTypingAnimationDirective&#45;&gt;SharedModule -->
<g id="edge5" class="edge">
<title>TextTypingAnimationDirective&#45;&gt;SharedModule</title>
<path fill="none" stroke="#000000" d="M391.0984,-122.0091C391.0984,-138.0494 391.0984,-159 391.0984,-159 391.0984,-159 421.5782,-159 421.5782,-159"/>
<polygon fill="#000000" stroke="#000000" points="421.5783,-162.5001 431.5782,-159 421.5782,-155.5001 421.5783,-162.5001"/>
</g>
<!-- ApolloAngularModule  -->
<g id="node8" class="node">
<title>ApolloAngularModule </title>
<polygon fill="#fb8072" stroke="#000000" points="954.8101,-252 807.1899,-252 807.1899,-216 954.8101,-216 954.8101,-252"/>
<text text-anchor="middle" x="881" y="-229.8" font-family="Times,serif" font-size="14.00" fill="#000000">ApolloAngularModule </text>
</g>
<!-- SharedModule&#45;&gt;ApolloAngularModule  -->
<g id="edge7" class="edge">
<title>SharedModule&#45;&gt;ApolloAngularModule </title>
<path fill="none" stroke="#000000" stroke-dasharray="5,2" d="M530.4046,-172C624.6374,-172 820.7642,-172 820.7642,-172 820.7642,-172 820.7642,-205.7333 820.7642,-205.7333"/>
<polygon fill="#000000" stroke="#000000" points="817.2643,-205.7333 820.7642,-215.7333 824.2643,-205.7333 817.2643,-205.7333"/>
</g>
<!-- CapitalizePipe  -->
<g id="node9" class="node">
<title>CapitalizePipe </title>
<polygon fill="#fb8072" stroke="#000000" points="789.6453,-252 688.3547,-252 688.3547,-216 789.6453,-216 789.6453,-252"/>
<text text-anchor="middle" x="739" y="-229.8" font-family="Times,serif" font-size="14.00" fill="#000000">CapitalizePipe </text>
</g>
<!-- SharedModule&#45;&gt;CapitalizePipe  -->
<g id="edge8" class="edge">
<title>SharedModule&#45;&gt;CapitalizePipe </title>
<path fill="none" stroke="#000000" stroke-dasharray="5,2" d="M530.2887,-177C597.7989,-177 710.7572,-177 710.7572,-177 710.7572,-177 710.7572,-205.9648 710.7572,-205.9648"/>
<polygon fill="#000000" stroke="#000000" points="707.2573,-205.9648 710.7572,-215.9648 714.2573,-205.9649 707.2573,-205.9648"/>
</g>
<!-- EnDatePipe  -->
<g id="node10" class="node">
<title>EnDatePipe </title>
<polygon fill="#fb8072" stroke="#000000" points="670.3676,-252 583.6324,-252 583.6324,-216 670.3676,-216 670.3676,-252"/>
<text text-anchor="middle" x="627" y="-229.8" font-family="Times,serif" font-size="14.00" fill="#000000">EnDatePipe </text>
</g>
<!-- SharedModule&#45;&gt;EnDatePipe  -->
<g id="edge9" class="edge">
<title>SharedModule&#45;&gt;EnDatePipe </title>
<path fill="none" stroke="#000000" stroke-dasharray="5,2" d="M530.4289,-182C572.7847,-182 627,-182 627,-182 627,-182 627,-205.8129 627,-205.8129"/>
<polygon fill="#000000" stroke="#000000" points="623.5001,-205.8129 627,-215.8129 630.5001,-205.813 623.5001,-205.8129"/>
</g>
<!-- FormControlErrorsDirective  -->
<g id="node11" class="node">
<title>FormControlErrorsDirective </title>
<polygon fill="#fb8072" stroke="#000000" points="565.6743,-252 386.3257,-252 386.3257,-216 565.6743,-216 565.6743,-252"/>
<text text-anchor="middle" x="476" y="-229.8" font-family="Times,serif" font-size="14.00" fill="#000000">FormControlErrorsDirective </text>
</g>
<!-- SharedModule&#45;&gt;FormControlErrorsDirective  -->
<g id="edge10" class="edge">
<title>SharedModule&#45;&gt;FormControlErrorsDirective </title>
<path fill="none" stroke="#000000" stroke-dasharray="5,2" d="M481,-187.1061C481,-187.1061 481,-205.991 481,-205.991"/>
<polygon fill="#000000" stroke="#000000" points="477.5001,-205.9909 481,-215.991 484.5001,-205.991 477.5001,-205.9909"/>
</g>
<!-- SpinnerComponent  -->
<g id="node12" class="node">
<title>SpinnerComponent </title>
<polygon fill="#fb8072" stroke="#000000" points="368.3814,-252 239.6186,-252 239.6186,-216 368.3814,-216 368.3814,-252"/>
<text text-anchor="middle" x="304" y="-229.8" font-family="Times,serif" font-size="14.00" fill="#000000">SpinnerComponent </text>
</g>
<!-- SharedModule&#45;&gt;SpinnerComponent  -->
<g id="edge11" class="edge">
<title>SharedModule&#45;&gt;SpinnerComponent </title>
<path fill="none" stroke="#000000" stroke-dasharray="5,2" d="M431.6956,-180C379.3228,-180 304,-180 304,-180 304,-180 304,-205.7181 304,-205.7181"/>
<polygon fill="#000000" stroke="#000000" points="300.5001,-205.718 304,-215.7181 307.5001,-205.7181 300.5001,-205.718"/>
</g>
<!-- TextTypingAnimationDirective  -->
<g id="node13" class="node">
<title>TextTypingAnimationDirective </title>
<polygon fill="#fb8072" stroke="#000000" points="221.5679,-252 24.4321,-252 24.4321,-216 221.5679,-216 221.5679,-252"/>
<text text-anchor="middle" x="123" y="-229.8" font-family="Times,serif" font-size="14.00" fill="#000000">TextTypingAnimationDirective </text>
</g>
<!-- SharedModule&#45;&gt;TextTypingAnimationDirective  -->
<g id="edge12" class="edge">
<title>SharedModule&#45;&gt;TextTypingAnimationDirective </title>
<path fill="none" stroke="#000000" stroke-dasharray="5,2" d="M431.6383,-173C353.9442,-173 211.875,-173 211.875,-173 211.875,-173 211.875,-205.698 211.875,-205.698"/>
<polygon fill="#000000" stroke="#000000" points="208.3751,-205.698 211.875,-215.698 215.3751,-205.698 208.3751,-205.698"/>
</g>
<!-- ApolloAngularModule -->
<g id="node7" class="node">
<title>ApolloAngularModule</title>
<polygon fill="#8dd3c7" stroke="#000000" points="178.3103,-122 175.3103,-126 154.3103,-126 151.3103,-122 33.6897,-122 33.6897,-86 178.3103,-86 178.3103,-122"/>
<text text-anchor="middle" x="106" y="-99.8" font-family="Times,serif" font-size="14.00" fill="#000000">ApolloAngularModule</text>
</g>
<!-- ApolloAngularModule&#45;&gt;SharedModule -->
<g id="edge6" class="edge">
<title>ApolloAngularModule&#45;&gt;SharedModule</title>
<path fill="none" stroke="#000000" d="M106,-122.2667C106,-140.5552 106,-166 106,-166 106,-166 421.5897,-166 421.5897,-166"/>
<polygon fill="#000000" stroke="#000000" points="421.5897,-169.5001 431.5897,-166 421.5896,-162.5001 421.5897,-169.5001"/>
</g>
</g>
</svg>
