<?xml version="1.0" encoding="UTF-8" standalone="no"?>
<!DOCTYPE svg PUBLIC "-//W3C//DTD SVG 1.1//EN"
 "http://www.w3.org/Graphics/SVG/1.1/DTD/svg11.dtd">
<!-- Generated by graphviz version 2.40.1 (20161225.0304)
 -->
<!-- Title: dependencies Pages: 1 -->
<svg width="1937pt" height="284pt"
 viewBox="0.00 0.00 1937.00 284.00" xmlns="http://www.w3.org/2000/svg" xmlns:xlink="http://www.w3.org/1999/xlink">
<g id="graph0" class="graph" transform="scale(1 1) rotate(0) translate(4 280)">
<title>dependencies</title>
<polygon fill="#ffffff" stroke="transparent" points="-4,4 -4,-280 1933,-280 1933,4 -4,4"/>
<text text-anchor="start" x="943.5091" y="-42.4" font-family="sans-serif" font-weight="bold" font-size="14.00" fill="#000000">Legend</text>
<polygon fill="#ffffb3" stroke="transparent" points="730.5,-10 730.5,-30 750.5,-30 750.5,-10 730.5,-10"/>
<text text-anchor="start" x="754.129" y="-15.4" font-family="sans-serif" font-size="14.00" fill="#000000"> &#160;Declarations</text>
<polygon fill="#8dd3c7" stroke="transparent" points="843.5,-10 843.5,-30 863.5,-30 863.5,-10 843.5,-10"/>
<text text-anchor="start" x="867.2251" y="-15.4" font-family="sans-serif" font-size="14.00" fill="#000000"> &#160;Module</text>
<polygon fill="#80b1d3" stroke="transparent" points="929.5,-10 929.5,-30 949.5,-30 949.5,-10 929.5,-10"/>
<text text-anchor="start" x="953.2812" y="-15.4" font-family="sans-serif" font-size="14.00" fill="#000000"> &#160;Bootstrap</text>
<polygon fill="#fdb462" stroke="transparent" points="1026.5,-10 1026.5,-30 1046.5,-30 1046.5,-10 1026.5,-10"/>
<text text-anchor="start" x="1050.1732" y="-15.4" font-family="sans-serif" font-size="14.00" fill="#000000"> &#160;Providers</text>
<polygon fill="#fb8072" stroke="transparent" points="1122.5,-10 1122.5,-30 1142.5,-30 1142.5,-10 1122.5,-10"/>
<text text-anchor="start" x="1146.2258" y="-15.4" font-family="sans-serif" font-size="14.00" fill="#000000"> &#160;Exports</text>
<g id="clust1" class="cluster">
<title>cluster_AppModule</title>
<polygon fill="none" stroke="#000000" stroke-dasharray="1,5" points="8,-70 8,-268 1921,-268 1921,-70 8,-70"/>
</g>
<g id="clust2" class="cluster">
<title>cluster_AppModule_declarations</title>
<polygon fill="none" stroke="#000000" points="732,-78 732,-130 1913,-130 1913,-78 732,-78"/>
</g>
<g id="clust10" class="cluster">
<title>cluster_AppModule_imports</title>
<polygon fill="none" stroke="#000000" points="158,-78 158,-130 724,-130 724,-78 158,-78"/>
</g>
<g id="clust12" class="cluster">
<title>cluster_AppModule_bootstrap</title>
<polygon fill="none" stroke="#000000" points="809,-208 809,-260 933,-260 933,-208 809,-208"/>
</g>
<g id="clust13" class="cluster">
<title>cluster_AppModule_providers</title>
<polygon fill="none" stroke="#000000" points="16,-78 16,-130 150,-130 150,-78 16,-78"/>
</g>
<!-- AppComponent -->
<g id="node1" class="node">
<title>AppComponent</title>
<polygon fill="#ffffb3" stroke="#000000" points="1904.9399,-122 1799.0601,-122 1799.0601,-86 1904.9399,-86 1904.9399,-122"/>
<text text-anchor="middle" x="1852" y="-99.8" font-family="Times,serif" font-size="14.00" fill="#000000">AppComponent</text>
</g>
<!-- AppModule -->
<g id="node8" class="node">
<title>AppModule</title>
<polygon fill="#8dd3c7" stroke="#000000" points="912.6571,-187 909.6571,-191 888.6571,-191 885.6571,-187 829.3429,-187 829.3429,-151 912.6571,-151 912.6571,-187"/>
<text text-anchor="middle" x="871" y="-164.8" font-family="Times,serif" font-size="14.00" fill="#000000">AppModule</text>
</g>
<!-- AppComponent&#45;&gt;AppModule -->
<g id="edge1" class="edge">
<title>AppComponent&#45;&gt;AppModule</title>
<path fill="none" stroke="#000000" d="M1852,-122.2479C1852,-145.0179 1852,-181 1852,-181 1852,-181 922.8385,-181 922.8385,-181"/>
<polygon fill="#000000" stroke="#000000" points="922.8386,-177.5001 912.8385,-181 922.8385,-184.5001 922.8386,-177.5001"/>
</g>
<!-- HomeComponent -->
<g id="node2" class="node">
<title>HomeComponent</title>
<polygon fill="#ffffb3" stroke="#000000" points="1781.5451,-122 1666.4549,-122 1666.4549,-86 1781.5451,-86 1781.5451,-122"/>
<text text-anchor="middle" x="1724" y="-99.8" font-family="Times,serif" font-size="14.00" fill="#000000">HomeComponent</text>
</g>
<!-- HomeComponent&#45;&gt;AppModule -->
<g id="edge2" class="edge">
<title>HomeComponent&#45;&gt;AppModule</title>
<path fill="none" stroke="#000000" d="M1724,-122.2843C1724,-143.3211 1724,-175 1724,-175 1724,-175 922.7194,-175 922.7194,-175"/>
<polygon fill="#000000" stroke="#000000" points="922.7194,-171.5001 912.7194,-175 922.7194,-178.5001 922.7194,-171.5001"/>
</g>
<!-- ModalWindowConfirmComponent -->
<g id="node3" class="node">
<title>ModalWindowConfirmComponent</title>
<polygon fill="#ffffb3" stroke="#000000" points="1647.5335,-122 1434.4665,-122 1434.4665,-86 1647.5335,-86 1647.5335,-122"/>
<text text-anchor="middle" x="1541" y="-99.8" font-family="Times,serif" font-size="14.00" fill="#000000">ModalWindowConfirmComponent</text>
</g>
<!-- ModalWindowConfirmComponent&#45;&gt;AppModule -->
<g id="edge3" class="edge">
<title>ModalWindowConfirmComponent&#45;&gt;AppModule</title>
<path fill="none" stroke="#000000" d="M1541,-122.1061C1541,-141.3391 1541,-169 1541,-169 1541,-169 922.6584,-169 922.6584,-169"/>
<polygon fill="#000000" stroke="#000000" points="922.6584,-165.5001 912.6584,-169 922.6583,-172.5001 922.6584,-165.5001"/>
</g>
<!-- ModalWindowMessageComponent -->
<g id="node4" class="node">
<title>ModalWindowMessageComponent</title>
<polygon fill="#ffffb3" stroke="#000000" points="1416.5716,-122 1201.4284,-122 1201.4284,-86 1416.5716,-86 1416.5716,-122"/>
<text text-anchor="middle" x="1309" y="-99.8" font-family="Times,serif" font-size="14.00" fill="#000000">ModalWindowMessageComponent</text>
</g>
<!-- ModalWindowMessageComponent&#45;&gt;AppModule -->
<g id="edge4" class="edge">
<title>ModalWindowMessageComponent&#45;&gt;AppModule</title>
<path fill="none" stroke="#000000" d="M1309,-122.0225C1309,-139.3734 1309,-163 1309,-163 1309,-163 922.9973,-163 922.9973,-163"/>
<polygon fill="#000000" stroke="#000000" points="922.9973,-159.5001 912.9973,-163 922.9972,-166.5001 922.9973,-159.5001"/>
</g>
<!-- PageNotFoundComponent -->
<g id="node5" class="node">
<title>PageNotFoundComponent</title>
<polygon fill="#ffffb3" stroke="#000000" points="1183.8243,-122 1018.1757,-122 1018.1757,-86 1183.8243,-86 1183.8243,-122"/>
<text text-anchor="middle" x="1101" y="-99.8" font-family="Times,serif" font-size="14.00" fill="#000000">PageNotFoundComponent</text>
</g>
<!-- PageNotFoundComponent&#45;&gt;AppModule -->
<g id="edge5" class="edge">
<title>PageNotFoundComponent&#45;&gt;AppModule</title>
<path fill="none" stroke="#000000" d="M1101,-122.2396C1101,-137.5706 1101,-157 1101,-157 1101,-157 922.9181,-157 922.9181,-157"/>
<polygon fill="#000000" stroke="#000000" points="922.9181,-153.5001 912.9181,-157 922.9181,-160.5001 922.9181,-153.5001"/>
</g>
<!-- SignInComponent -->
<g id="node6" class="node">
<title>SignInComponent</title>
<polygon fill="#ffffb3" stroke="#000000" points="1000.1667,-122 881.8333,-122 881.8333,-86 1000.1667,-86 1000.1667,-122"/>
<text text-anchor="middle" x="941" y="-99.8" font-family="Times,serif" font-size="14.00" fill="#000000">SignInComponent</text>
</g>
<!-- SignInComponent&#45;&gt;AppModule -->
<g id="edge6" class="edge">
<title>SignInComponent&#45;&gt;AppModule</title>
<path fill="none" stroke="#000000" d="M897.2476,-122.1061C897.2476,-122.1061 897.2476,-140.991 897.2476,-140.991"/>
<polygon fill="#000000" stroke="#000000" points="893.7476,-140.9909 897.2476,-150.991 900.7476,-140.991 893.7476,-140.9909"/>
</g>
<!-- SignUpComponent -->
<g id="node7" class="node">
<title>SignUpComponent</title>
<polygon fill="#ffffb3" stroke="#000000" points="864.1123,-122 739.8877,-122 739.8877,-86 864.1123,-86 864.1123,-122"/>
<text text-anchor="middle" x="802" y="-99.8" font-family="Times,serif" font-size="14.00" fill="#000000">SignUpComponent</text>
</g>
<!-- SignUpComponent&#45;&gt;AppModule -->
<g id="edge7" class="edge">
<title>SignUpComponent&#45;&gt;AppModule</title>
<path fill="none" stroke="#000000" d="M846.614,-122.1061C846.614,-122.1061 846.614,-140.991 846.614,-140.991"/>
<polygon fill="#000000" stroke="#000000" points="843.114,-140.9909 846.614,-150.991 850.114,-140.991 843.114,-140.9909"/>
</g>
<!-- AppComponent  -->
<g id="node13" class="node">
<title>AppComponent </title>
<polygon fill="#80b1d3" stroke="#000000" points="925.439,-252 816.561,-252 816.561,-216 925.439,-216 925.439,-252"/>
<text text-anchor="middle" x="871" y="-229.8" font-family="Times,serif" font-size="14.00" fill="#000000">AppComponent </text>
</g>
<!-- AppModule&#45;&gt;AppComponent  -->
<g id="edge12" class="edge">
<title>AppModule&#45;&gt;AppComponent </title>
<path fill="none" stroke="#000000" stroke-dasharray="1,5" d="M871,-187.1061C871,-187.1061 871,-205.991 871,-205.991"/>
<polygon fill="#000000" stroke="#000000" points="867.5001,-205.9909 871,-215.991 874.5001,-205.991 867.5001,-205.9909"/>
</g>
<!-- AppRoutingModule -->
<g id="node9" class="node">
<title>AppRoutingModule</title>
<polygon fill="#8dd3c7" stroke="#000000" points="716.2744,-122 713.2744,-126 692.2744,-126 689.2744,-122 587.7256,-122 587.7256,-86 716.2744,-86 716.2744,-122"/>
<text text-anchor="middle" x="652" y="-99.8" font-family="Times,serif" font-size="14.00" fill="#000000">AppRoutingModule</text>
</g>
<!-- AppRoutingModule&#45;&gt;AppModule -->
<g id="edge8" class="edge">
<title>AppRoutingModule&#45;&gt;AppModule</title>
<path fill="none" stroke="#000000" d="M652,-122.2396C652,-137.5706 652,-157 652,-157 652,-157 819.2923,-157 819.2923,-157"/>
<polygon fill="#000000" stroke="#000000" points="819.2923,-160.5001 829.2923,-157 819.2923,-153.5001 819.2923,-160.5001"/>
</g>
<!-- NgrxStoreModule -->
<g id="node10" class="node">
<title>NgrxStoreModule</title>
<polygon fill="#8dd3c7" stroke="#000000" points="569.8655,-122 566.8655,-126 545.8655,-126 542.8655,-122 452.1345,-122 452.1345,-86 569.8655,-86 569.8655,-122"/>
<text text-anchor="middle" x="511" y="-99.8" font-family="Times,serif" font-size="14.00" fill="#000000">NgrxStoreModule</text>
</g>
<!-- NgrxStoreModule&#45;&gt;AppModule -->
<g id="edge9" class="edge">
<title>NgrxStoreModule&#45;&gt;AppModule</title>
<path fill="none" stroke="#000000" d="M511,-122.0225C511,-139.3734 511,-163 511,-163 511,-163 818.9989,-163 818.9989,-163"/>
<polygon fill="#000000" stroke="#000000" points="818.9989,-166.5001 828.9989,-163 818.9988,-159.5001 818.9989,-166.5001"/>
</g>
<!-- SharedModule -->
<g id="node11" class="node">
<title>SharedModule</title>
<polygon fill="#8dd3c7" stroke="#000000" points="434.4231,-122 431.4231,-126 410.4231,-126 407.4231,-122 335.5769,-122 335.5769,-86 434.4231,-86 434.4231,-122"/>
<text text-anchor="middle" x="385" y="-99.8" font-family="Times,serif" font-size="14.00" fill="#000000">SharedModule</text>
</g>
<!-- SharedModule&#45;&gt;AppModule -->
<g id="edge10" class="edge">
<title>SharedModule&#45;&gt;AppModule</title>
<path fill="none" stroke="#000000" d="M385,-122.1061C385,-141.3391 385,-169 385,-169 385,-169 819.1433,-169 819.1433,-169"/>
<polygon fill="#000000" stroke="#000000" points="819.1433,-172.5001 829.1433,-169 819.1432,-165.5001 819.1433,-172.5001"/>
</g>
<!-- SharedProvidersModule -->
<g id="node12" class="node">
<title>SharedProvidersModule</title>
<polygon fill="#8dd3c7" stroke="#000000" points="318.0758,-122 315.0758,-126 294.0758,-126 291.0758,-122 165.9242,-122 165.9242,-86 318.0758,-86 318.0758,-122"/>
<text text-anchor="middle" x="242" y="-99.8" font-family="Times,serif" font-size="14.00" fill="#000000">SharedProvidersModule</text>
</g>
<!-- SharedProvidersModule&#45;&gt;AppModule -->
<g id="edge11" class="edge">
<title>SharedProvidersModule&#45;&gt;AppModule</title>
<path fill="none" stroke="#000000" d="M242,-122.2843C242,-143.3211 242,-175 242,-175 242,-175 819.2424,-175 819.2424,-175"/>
<polygon fill="#000000" stroke="#000000" points="819.2425,-178.5001 829.2424,-175 819.2424,-171.5001 819.2425,-178.5001"/>
</g>
<!-- AuthService -->
<g id="node14" class="node">
<title>AuthService</title>
<ellipse fill="#fdb462" stroke="#000000" cx="83" cy="-104" rx="59.1083" ry="18"/>
<text text-anchor="middle" x="83" y="-99.8" font-family="Times,serif" font-size="14.00" fill="#000000">AuthService</text>
</g>
<!-- AuthService&#45;&gt;AppModule -->
<g id="edge13" class="edge">
<title>AuthService&#45;&gt;AppModule</title>
<path fill="none" stroke="#000000" d="M83,-122.2479C83,-145.0179 83,-181 83,-181 83,-181 819.1901,-181 819.1901,-181"/>
<polygon fill="#000000" stroke="#000000" points="819.1901,-184.5001 829.1901,-181 819.19,-177.5001 819.1901,-184.5001"/>
</g>
</g>
</svg>
