<?xml version="1.0" encoding="UTF-8" standalone="no"?>
<!DOCTYPE svg PUBLIC "-//W3C//DTD SVG 1.1//EN"
 "http://www.w3.org/Graphics/SVG/1.1/DTD/svg11.dtd">
<!-- Generated by graphviz version 2.40.1 (20161225.0304)
 -->
<!-- Title: dependencies Pages: 1 -->
<svg width="1765pt" height="211pt"
 viewBox="0.00 0.00 1765.00 211.00" xmlns="http://www.w3.org/2000/svg" xmlns:xlink="http://www.w3.org/1999/xlink">
<g id="graph0" class="graph" transform="scale(1 1) rotate(0) translate(4 207)">
<title>dependencies</title>
<polygon fill="#ffffff" stroke="transparent" points="-4,4 -4,-207 1761,-207 1761,4 -4,4"/>
<text text-anchor="start" x="857.5091" y="-42.4" font-family="sans-serif" font-weight="bold" font-size="14.00" fill="#000000">Legend</text>
<polygon fill="#ffffb3" stroke="transparent" points="644.5,-10 644.5,-30 664.5,-30 664.5,-10 644.5,-10"/>
<text text-anchor="start" x="668.129" y="-15.4" font-family="sans-serif" font-size="14.00" fill="#000000"> &#160;Declarations</text>
<polygon fill="#8dd3c7" stroke="transparent" points="757.5,-10 757.5,-30 777.5,-30 777.5,-10 757.5,-10"/>
<text text-anchor="start" x="781.2251" y="-15.4" font-family="sans-serif" font-size="14.00" fill="#000000"> &#160;Module</text>
<polygon fill="#80b1d3" stroke="transparent" points="843.5,-10 843.5,-30 863.5,-30 863.5,-10 843.5,-10"/>
<text text-anchor="start" x="867.2812" y="-15.4" font-family="sans-serif" font-size="14.00" fill="#000000"> &#160;Bootstrap</text>
<polygon fill="#fdb462" stroke="transparent" points="940.5,-10 940.5,-30 960.5,-30 960.5,-10 940.5,-10"/>
<text text-anchor="start" x="964.1732" y="-15.4" font-family="sans-serif" font-size="14.00" fill="#000000"> &#160;Providers</text>
<polygon fill="#fb8072" stroke="transparent" points="1036.5,-10 1036.5,-30 1056.5,-30 1056.5,-10 1036.5,-10"/>
<text text-anchor="start" x="1060.2258" y="-15.4" font-family="sans-serif" font-size="14.00" fill="#000000"> &#160;Exports</text>
<g id="clust1" class="cluster">
<title>cluster_AppClientModule</title>
<polygon fill="none" stroke="#000000" stroke-dasharray="1,5" points="8,-70 8,-195 1749,-195 1749,-70 8,-70"/>
</g>
<g id="clust2" class="cluster">
<title>cluster_AppClientModule_declarations</title>
<polygon fill="none" stroke="#000000" points="701,-78 701,-130 1741,-130 1741,-78 701,-78"/>
</g>
<g id="clust10" class="cluster">
<title>cluster_AppClientModule_imports</title>
<polygon fill="none" stroke="#000000" points="297,-78 297,-130 693,-130 693,-78 297,-78"/>
</g>
<g id="clust13" class="cluster">
<title>cluster_AppClientModule_providers</title>
<polygon fill="none" stroke="#000000" points="16,-78 16,-130 289,-130 289,-78 16,-78"/>
</g>
<!-- AppClientComponent -->
<g id="node1" class="node">
<title>AppClientComponent</title>
<polygon fill="#ffffb3" stroke="#000000" points="1732.6624,-122 1593.3376,-122 1593.3376,-86 1732.6624,-86 1732.6624,-122"/>
<text text-anchor="middle" x="1663" y="-99.8" font-family="Times,serif" font-size="14.00" fill="#000000">AppClientComponent</text>
</g>
<!-- AppClientModule -->
<g id="node8" class="node">
<title>AppClientModule</title>
<polygon fill="#8dd3c7" stroke="#000000" points="898.8795,-187 895.8795,-191 874.8795,-191 871.8795,-187 781.1205,-187 781.1205,-151 898.8795,-151 898.8795,-187"/>
<text text-anchor="middle" x="840" y="-164.8" font-family="Times,serif" font-size="14.00" fill="#000000">AppClientModule</text>
</g>
<!-- AppClientComponent&#45;&gt;AppClientModule -->
<g id="edge1" class="edge">
<title>AppClientComponent&#45;&gt;AppClientModule</title>
<path fill="none" stroke="#000000" d="M1663,-122.0908C1663,-145.1328 1663,-182 1663,-182 1663,-182 909.1881,-182 909.1881,-182"/>
<polygon fill="#000000" stroke="#000000" points="909.1882,-178.5001 899.1881,-182 909.1881,-185.5001 909.1882,-178.5001"/>
</g>
<!-- CreateTodoComponent -->
<g id="node2" class="node">
<title>CreateTodoComponent</title>
<polygon fill="#ffffb3" stroke="#000000" points="1574.9172,-122 1427.0828,-122 1427.0828,-86 1574.9172,-86 1574.9172,-122"/>
<text text-anchor="middle" x="1501" y="-99.8" font-family="Times,serif" font-size="14.00" fill="#000000">CreateTodoComponent</text>
</g>
<!-- CreateTodoComponent&#45;&gt;AppClientModule -->
<g id="edge2" class="edge">
<title>CreateTodoComponent&#45;&gt;AppClientModule</title>
<path fill="none" stroke="#000000" d="M1501,-122.2843C1501,-143.3211 1501,-175 1501,-175 1501,-175 908.9499,-175 908.9499,-175"/>
<polygon fill="#000000" stroke="#000000" points="908.9499,-171.5001 898.9499,-175 908.9499,-178.5001 908.9499,-171.5001"/>
</g>
<!-- ProfileComponent -->
<g id="node3" class="node">
<title>ProfileComponent</title>
<polygon fill="#ffffb3" stroke="#000000" points="1409.9328,-122 1290.0672,-122 1290.0672,-86 1409.9328,-86 1409.9328,-122"/>
<text text-anchor="middle" x="1350" y="-99.8" font-family="Times,serif" font-size="14.00" fill="#000000">ProfileComponent</text>
</g>
<!-- ProfileComponent&#45;&gt;AppClientModule -->
<g id="edge3" class="edge">
<title>ProfileComponent&#45;&gt;AppClientModule</title>
<path fill="none" stroke="#000000" d="M1350,-122.1061C1350,-141.3391 1350,-169 1350,-169 1350,-169 909.0017,-169 909.0017,-169"/>
<polygon fill="#000000" stroke="#000000" points="909.0017,-165.5001 899.0017,-169 909.0017,-172.5001 909.0017,-165.5001"/>
</g>
<!-- TodoComponent -->
<g id="node4" class="node">
<title>TodoComponent</title>
<polygon fill="#ffffb3" stroke="#000000" points="1272.3851,-122 1161.6149,-122 1161.6149,-86 1272.3851,-86 1272.3851,-122"/>
<text text-anchor="middle" x="1217" y="-99.8" font-family="Times,serif" font-size="14.00" fill="#000000">TodoComponent</text>
</g>
<!-- TodoComponent&#45;&gt;AppClientModule -->
<g id="edge4" class="edge">
<title>TodoComponent&#45;&gt;AppClientModule</title>
<path fill="none" stroke="#000000" d="M1217,-122.0225C1217,-139.3734 1217,-163 1217,-163 1217,-163 908.9063,-163 908.9063,-163"/>
<polygon fill="#000000" stroke="#000000" points="908.9063,-159.5001 898.9063,-163 908.9062,-166.5001 908.9063,-159.5001"/>
</g>
<!-- TodoFormComponent -->
<g id="node5" class="node">
<title>TodoFormComponent</title>
<polygon fill="#ffffb3" stroke="#000000" points="1143.719,-122 1002.281,-122 1002.281,-86 1143.719,-86 1143.719,-122"/>
<text text-anchor="middle" x="1073" y="-99.8" font-family="Times,serif" font-size="14.00" fill="#000000">TodoFormComponent</text>
</g>
<!-- TodoFormComponent&#45;&gt;AppClientModule -->
<g id="edge5" class="edge">
<title>TodoFormComponent&#45;&gt;AppClientModule</title>
<path fill="none" stroke="#000000" d="M1073,-122.2396C1073,-137.5706 1073,-157 1073,-157 1073,-157 909.0969,-157 909.0969,-157"/>
<polygon fill="#000000" stroke="#000000" points="909.097,-153.5001 899.0969,-157 909.0969,-160.5001 909.097,-153.5001"/>
</g>
<!-- TodoViewComponent -->
<g id="node6" class="node">
<title>TodoViewComponent</title>
<polygon fill="#ffffb3" stroke="#000000" points="984.7035,-122 843.2965,-122 843.2965,-86 984.7035,-86 984.7035,-122"/>
<text text-anchor="middle" x="914" y="-99.8" font-family="Times,serif" font-size="14.00" fill="#000000">TodoViewComponent</text>
</g>
<!-- TodoViewComponent&#45;&gt;AppClientModule -->
<g id="edge6" class="edge">
<title>TodoViewComponent&#45;&gt;AppClientModule</title>
<path fill="none" stroke="#000000" d="M871.169,-122.1061C871.169,-122.1061 871.169,-140.991 871.169,-140.991"/>
<polygon fill="#000000" stroke="#000000" points="867.6691,-140.9909 871.169,-150.991 874.6691,-140.991 867.6691,-140.9909"/>
</g>
<!-- TodosComponent -->
<g id="node7" class="node">
<title>TodosComponent</title>
<polygon fill="#ffffb3" stroke="#000000" points="825.3301,-122 708.6699,-122 708.6699,-86 825.3301,-86 825.3301,-122"/>
<text text-anchor="middle" x="767" y="-99.8" font-family="Times,serif" font-size="14.00" fill="#000000">TodosComponent</text>
</g>
<!-- TodosComponent&#45;&gt;AppClientModule -->
<g id="edge7" class="edge">
<title>TodosComponent&#45;&gt;AppClientModule</title>
<path fill="none" stroke="#000000" d="M803.1126,-122.1061C803.1126,-122.1061 803.1126,-140.991 803.1126,-140.991"/>
<polygon fill="#000000" stroke="#000000" points="799.6126,-140.9909 803.1126,-150.991 806.6126,-140.991 799.6126,-140.9909"/>
</g>
<!-- AppRoutingModule -->
<g id="node9" class="node">
<title>AppRoutingModule</title>
<polygon fill="#8dd3c7" stroke="#000000" points="685.2744,-122 682.2744,-126 661.2744,-126 658.2744,-122 556.7256,-122 556.7256,-86 685.2744,-86 685.2744,-122"/>
<text text-anchor="middle" x="621" y="-99.8" font-family="Times,serif" font-size="14.00" fill="#000000">AppRoutingModule</text>
</g>
<!-- AppRoutingModule&#45;&gt;AppClientModule -->
<g id="edge8" class="edge">
<title>AppRoutingModule&#45;&gt;AppClientModule</title>
<path fill="none" stroke="#000000" d="M621,-122.2396C621,-137.5706 621,-157 621,-157 621,-157 771.0239,-157 771.0239,-157"/>
<polygon fill="#000000" stroke="#000000" points="771.024,-160.5001 781.0239,-157 771.0239,-153.5001 771.024,-160.5001"/>
</g>
<!-- NgrxStoreModule -->
<g id="node10" class="node">
<title>NgrxStoreModule</title>
<polygon fill="#8dd3c7" stroke="#000000" points="538.8655,-122 535.8655,-126 514.8655,-126 511.8655,-122 421.1345,-122 421.1345,-86 538.8655,-86 538.8655,-122"/>
<text text-anchor="middle" x="480" y="-99.8" font-family="Times,serif" font-size="14.00" fill="#000000">NgrxStoreModule</text>
</g>
<!-- NgrxStoreModule&#45;&gt;AppClientModule -->
<g id="edge9" class="edge">
<title>NgrxStoreModule&#45;&gt;AppClientModule</title>
<path fill="none" stroke="#000000" d="M480,-122.0225C480,-139.3734 480,-163 480,-163 480,-163 770.9564,-163 770.9564,-163"/>
<polygon fill="#000000" stroke="#000000" points="770.9565,-166.5001 780.9564,-163 770.9564,-159.5001 770.9565,-166.5001"/>
</g>
<!-- SharedModule -->
<g id="node11" class="node">
<title>SharedModule</title>
<polygon fill="#8dd3c7" stroke="#000000" points="403.4231,-122 400.4231,-126 379.4231,-126 376.4231,-122 304.5769,-122 304.5769,-86 403.4231,-86 403.4231,-122"/>
<text text-anchor="middle" x="354" y="-99.8" font-family="Times,serif" font-size="14.00" fill="#000000">SharedModule</text>
</g>
<!-- SharedModule&#45;&gt;AppClientModule -->
<g id="edge10" class="edge">
<title>SharedModule&#45;&gt;AppClientModule</title>
<path fill="none" stroke="#000000" d="M354,-122.1061C354,-141.3391 354,-169 354,-169 354,-169 770.8927,-169 770.8927,-169"/>
<polygon fill="#000000" stroke="#000000" points="770.8928,-172.5001 780.8927,-169 770.8927,-165.5001 770.8928,-172.5001"/>
</g>
<!-- AuthService -->
<g id="node12" class="node">
<title>AuthService</title>
<ellipse fill="#fdb462" stroke="#000000" cx="222" cy="-104" rx="59.1083" ry="18"/>
<text text-anchor="middle" x="222" y="-99.8" font-family="Times,serif" font-size="14.00" fill="#000000">AuthService</text>
</g>
<!-- AuthService&#45;&gt;AppClientModule -->
<g id="edge11" class="edge">
<title>AuthService&#45;&gt;AppClientModule</title>
<path fill="none" stroke="#000000" d="M222,-122.2843C222,-143.3211 222,-175 222,-175 222,-175 771.0235,-175 771.0235,-175"/>
<polygon fill="#000000" stroke="#000000" points="771.0235,-178.5001 781.0235,-175 771.0235,-171.5001 771.0235,-178.5001"/>
</g>
<!-- TodoService -->
<g id="node13" class="node">
<title>TodoService</title>
<ellipse fill="#fdb462" stroke="#000000" cx="84" cy="-104" rx="60.2537" ry="18"/>
<text text-anchor="middle" x="84" y="-99.8" font-family="Times,serif" font-size="14.00" fill="#000000">TodoService</text>
</g>
<!-- TodoService&#45;&gt;AppClientModule -->
<g id="edge12" class="edge">
<title>TodoService&#45;&gt;AppClientModule</title>
<path fill="none" stroke="#000000" d="M84,-122.0908C84,-145.1328 84,-182 84,-182 84,-182 770.9928,-182 770.9928,-182"/>
<polygon fill="#000000" stroke="#000000" points="770.9929,-185.5001 780.9928,-182 770.9928,-178.5001 770.9929,-185.5001"/>
</g>
</g>
</svg>
