<?xml version="1.0" encoding="UTF-8" standalone="no"?>
<!DOCTYPE svg PUBLIC "-//W3C//DTD SVG 1.1//EN"
 "http://www.w3.org/Graphics/SVG/1.1/DTD/svg11.dtd">
<!-- Generated by graphviz version 2.40.1 (20161225.0304)
 -->
<!-- Title: dependencies Pages: 1 -->
<svg width="5058pt" height="290pt"
 viewBox="0.00 0.00 5058.00 290.00" xmlns="http://www.w3.org/2000/svg" xmlns:xlink="http://www.w3.org/1999/xlink">
<g id="graph0" class="graph" transform="scale(1 1) rotate(0) translate(4 286)">
<title>dependencies</title>
<polygon fill="#ffffff" stroke="transparent" points="-4,4 -4,-286 5054,-286 5054,4 -4,4"/>
<text text-anchor="start" x="2504.0091" y="-42.4" font-family="sans-serif" font-weight="bold" font-size="14.00" fill="#000000">Legend</text>
<polygon fill="#ffffb3" stroke="transparent" points="2291,-10 2291,-30 2311,-30 2311,-10 2291,-10"/>
<text text-anchor="start" x="2314.629" y="-15.4" font-family="sans-serif" font-size="14.00" fill="#000000"> &#160;Declarations</text>
<polygon fill="#8dd3c7" stroke="transparent" points="2404,-10 2404,-30 2424,-30 2424,-10 2404,-10"/>
<text text-anchor="start" x="2427.7251" y="-15.4" font-family="sans-serif" font-size="14.00" fill="#000000"> &#160;Module</text>
<polygon fill="#80b1d3" stroke="transparent" points="2490,-10 2490,-30 2510,-30 2510,-10 2490,-10"/>
<text text-anchor="start" x="2513.7812" y="-15.4" font-family="sans-serif" font-size="14.00" fill="#000000"> &#160;Bootstrap</text>
<polygon fill="#fdb462" stroke="transparent" points="2587,-10 2587,-30 2607,-30 2607,-10 2587,-10"/>
<text text-anchor="start" x="2610.6732" y="-15.4" font-family="sans-serif" font-size="14.00" fill="#000000"> &#160;Providers</text>
<polygon fill="#fb8072" stroke="transparent" points="2683,-10 2683,-30 2703,-30 2703,-10 2683,-10"/>
<text text-anchor="start" x="2706.7258" y="-15.4" font-family="sans-serif" font-size="14.00" fill="#000000"> &#160;Exports</text>
<g id="clust7" class="cluster">
<title>cluster_AppClientModule</title>
<polygon fill="none" stroke="#000000" stroke-dasharray="1,5" points="8,-70 8,-198 1751,-198 1751,-70 8,-70"/>
</g>
<g id="clust8" class="cluster">
<title>cluster_AppClientModule_declarations</title>
<polygon fill="none" stroke="#000000" points="16,-78 16,-130 1057,-130 1057,-78 16,-78"/>
</g>
<g id="clust16" class="cluster">
<title>cluster_AppClientModule_imports</title>
<polygon fill="none" stroke="#000000" points="1346,-78 1346,-130 1743,-130 1743,-78 1346,-78"/>
</g>
<g id="clust19" class="cluster">
<title>cluster_AppClientModule_providers</title>
<polygon fill="none" stroke="#000000" points="1065,-78 1065,-130 1338,-130 1338,-78 1065,-78"/>
</g>
<g id="clust20" class="cluster">
<title>cluster_AppModule</title>
<polygon fill="none" stroke="#000000" stroke-dasharray="1,5" points="3669,-70 3669,-274 5042,-274 5042,-70 3669,-70"/>
</g>
<g id="clust21" class="cluster">
<title>cluster_AppModule_declarations</title>
<polygon fill="none" stroke="#000000" points="3853,-78 3853,-130 5034,-130 5034,-78 3853,-78"/>
</g>
<g id="clust29" class="cluster">
<title>cluster_AppModule_imports</title>
<polygon fill="none" stroke="#000000" points="3677,-78 3677,-130 3845,-130 3845,-78 3677,-78"/>
</g>
<g id="clust31" class="cluster">
<title>cluster_AppModule_bootstrap</title>
<polygon fill="none" stroke="#000000" points="3921,-214 3921,-266 4045,-266 4045,-214 3921,-214"/>
</g>
<g id="clust45" class="cluster">
<title>cluster_SharedModule</title>
<polygon fill="none" stroke="#000000" stroke-dasharray="1,5" points="1759,-138 1759,-206 3661,-206 3661,-138 1759,-138"/>
</g>
<g id="clust46" class="cluster">
<title>cluster_SharedModule_declarations</title>
<polygon fill="none" stroke="#000000" points="2890,-146 2890,-198 3653,-198 3653,-146 2890,-146"/>
</g>
<g id="clust52" class="cluster">
<title>cluster_SharedModule_imports</title>
<polygon fill="none" stroke="#000000" points="2722,-146 2722,-198 2882,-198 2882,-146 2722,-146"/>
</g>
<g id="clust53" class="cluster">
<title>cluster_SharedModule_exports</title>
<polygon fill="none" stroke="#000000" points="1767,-146 1767,-198 2714,-198 2714,-146 1767,-146"/>
</g>
<!-- AppClientComponent -->
<g id="node1" class="node">
<title>AppClientComponent</title>
<polygon fill="#ffffb3" stroke="#000000" points="329.6624,-122 190.3376,-122 190.3376,-86 329.6624,-86 329.6624,-122"/>
<text text-anchor="middle" x="260" y="-99.8" font-family="Times,serif" font-size="14.00" fill="#000000">AppClientComponent</text>
</g>
<!-- AppClientModule -->
<g id="node8" class="node">
<title>AppClientModule</title>
<polygon fill="#8dd3c7" stroke="#000000" points="980.8795,-190 977.8795,-194 956.8795,-194 953.8795,-190 863.1205,-190 863.1205,-154 980.8795,-154 980.8795,-190"/>
<text text-anchor="middle" x="922" y="-167.8" font-family="Times,serif" font-size="14.00" fill="#000000">AppClientModule</text>
</g>
<!-- AppClientComponent&#45;&gt;AppClientModule -->
<g id="edge1" class="edge">
<title>AppClientComponent&#45;&gt;AppClientModule</title>
<path fill="none" stroke="#000000" d="M260,-122.2921C260,-144.2057 260,-178 260,-178 260,-178 852.9609,-178 852.9609,-178"/>
<polygon fill="#000000" stroke="#000000" points="852.961,-181.5001 862.9609,-178 852.9609,-174.5001 852.961,-181.5001"/>
</g>
<!-- CreateTodoComponent -->
<g id="node2" class="node">
<title>CreateTodoComponent</title>
<polygon fill="#ffffb3" stroke="#000000" points="171.9172,-122 24.0828,-122 24.0828,-86 171.9172,-86 171.9172,-122"/>
<text text-anchor="middle" x="98" y="-99.8" font-family="Times,serif" font-size="14.00" fill="#000000">CreateTodoComponent</text>
</g>
<!-- CreateTodoComponent&#45;&gt;AppClientModule -->
<g id="edge2" class="edge">
<title>CreateTodoComponent&#45;&gt;AppClientModule</title>
<path fill="none" stroke="#000000" d="M98,-122.1532C98,-145.7566 98,-184 98,-184 98,-184 853.0706,-184 853.0706,-184"/>
<polygon fill="#000000" stroke="#000000" points="853.0707,-187.5001 863.0706,-184 853.0706,-180.5001 853.0707,-187.5001"/>
</g>
<!-- ProfileComponent -->
<g id="node3" class="node">
<title>ProfileComponent</title>
<polygon fill="#ffffb3" stroke="#000000" points="1048.9328,-122 929.0672,-122 929.0672,-86 1048.9328,-86 1048.9328,-122"/>
<text text-anchor="middle" x="989" y="-99.8" font-family="Times,serif" font-size="14.00" fill="#000000">ProfileComponent</text>
</g>
<!-- ProfileComponent&#45;&gt;AppClientModule -->
<g id="edge3" class="edge">
<title>ProfileComponent&#45;&gt;AppClientModule</title>
<path fill="none" stroke="#000000" d="M955.1119,-122.2228C955.1119,-122.2228 955.1119,-143.7269 955.1119,-143.7269"/>
<polygon fill="#000000" stroke="#000000" points="951.6119,-143.7269 955.1119,-153.7269 958.6119,-143.727 951.6119,-143.7269"/>
</g>
<!-- TodoComponent -->
<g id="node4" class="node">
<title>TodoComponent</title>
<polygon fill="#ffffb3" stroke="#000000" points="911.3851,-122 800.6149,-122 800.6149,-86 911.3851,-86 911.3851,-122"/>
<text text-anchor="middle" x="856" y="-99.8" font-family="Times,serif" font-size="14.00" fill="#000000">TodoComponent</text>
</g>
<!-- TodoComponent&#45;&gt;AppClientModule -->
<g id="edge4" class="edge">
<title>TodoComponent&#45;&gt;AppClientModule</title>
<path fill="none" stroke="#000000" d="M887.2514,-122.2228C887.2514,-122.2228 887.2514,-143.7269 887.2514,-143.7269"/>
<polygon fill="#000000" stroke="#000000" points="883.7515,-143.7269 887.2514,-153.7269 890.7515,-143.727 883.7515,-143.7269"/>
</g>
<!-- TodoFormComponent -->
<g id="node5" class="node">
<title>TodoFormComponent</title>
<polygon fill="#ffffb3" stroke="#000000" points="782.719,-122 641.281,-122 641.281,-86 782.719,-86 782.719,-122"/>
<text text-anchor="middle" x="712" y="-99.8" font-family="Times,serif" font-size="14.00" fill="#000000">TodoFormComponent</text>
</g>
<!-- TodoFormComponent&#45;&gt;AppClientModule -->
<g id="edge5" class="edge">
<title>TodoFormComponent&#45;&gt;AppClientModule</title>
<path fill="none" stroke="#000000" d="M712,-122.027C712,-138.3976 712,-160 712,-160 712,-160 852.9444,-160 852.9444,-160"/>
<polygon fill="#000000" stroke="#000000" points="852.9445,-163.5001 862.9444,-160 852.9444,-156.5001 852.9445,-163.5001"/>
</g>
<!-- TodoViewComponent -->
<g id="node6" class="node">
<title>TodoViewComponent</title>
<polygon fill="#ffffb3" stroke="#000000" points="623.7035,-122 482.2965,-122 482.2965,-86 623.7035,-86 623.7035,-122"/>
<text text-anchor="middle" x="553" y="-99.8" font-family="Times,serif" font-size="14.00" fill="#000000">TodoViewComponent</text>
</g>
<!-- TodoViewComponent&#45;&gt;AppClientModule -->
<g id="edge6" class="edge">
<title>TodoViewComponent&#45;&gt;AppClientModule</title>
<path fill="none" stroke="#000000" d="M553,-122.2667C553,-140.5552 553,-166 553,-166 553,-166 852.7138,-166 852.7138,-166"/>
<polygon fill="#000000" stroke="#000000" points="852.7138,-169.5001 862.7138,-166 852.7137,-162.5001 852.7138,-169.5001"/>
</g>
<!-- TodosComponent -->
<g id="node7" class="node">
<title>TodosComponent</title>
<polygon fill="#ffffb3" stroke="#000000" points="464.3301,-122 347.6699,-122 347.6699,-86 464.3301,-86 464.3301,-122"/>
<text text-anchor="middle" x="406" y="-99.8" font-family="Times,serif" font-size="14.00" fill="#000000">TodosComponent</text>
</g>
<!-- TodosComponent&#45;&gt;AppClientModule -->
<g id="edge7" class="edge">
<title>TodosComponent&#45;&gt;AppClientModule</title>
<path fill="none" stroke="#000000" d="M406,-122.2228C406,-142.3652 406,-172 406,-172 406,-172 853.0596,-172 853.0596,-172"/>
<polygon fill="#000000" stroke="#000000" points="853.0597,-175.5001 863.0596,-172 853.0596,-168.5001 853.0597,-175.5001"/>
</g>
<!-- AppRoutingModule -->
<g id="node9" class="node">
<title>AppRoutingModule</title>
<polygon fill="#8dd3c7" stroke="#000000" points="1482.2744,-122 1479.2744,-126 1458.2744,-126 1455.2744,-122 1353.7256,-122 1353.7256,-86 1482.2744,-86 1482.2744,-122"/>
<text text-anchor="middle" x="1418" y="-99.8" font-family="Times,serif" font-size="14.00" fill="#000000">AppRoutingModule</text>
</g>
<!-- AppRoutingModule&#45;&gt;AppClientModule -->
<g id="edge8" class="edge">
<title>AppRoutingModule&#45;&gt;AppClientModule</title>
<path fill="none" stroke="#000000" d="M1439.4624,-122.2843C1439.4624,-143.3211 1439.4624,-175 1439.4624,-175 1439.4624,-175 991.1074,-175 991.1074,-175"/>
<polygon fill="#000000" stroke="#000000" points="991.1074,-171.5001 981.1074,-175 991.1074,-178.5001 991.1074,-171.5001"/>
</g>
<!-- AppModule -->
<g id="node21" class="node">
<title>AppModule</title>
<polygon fill="#8dd3c7" stroke="#000000" points="4024.6571,-190 4021.6571,-194 4000.6571,-194 3997.6571,-190 3941.3429,-190 3941.3429,-154 4024.6571,-154 4024.6571,-190"/>
<text text-anchor="middle" x="3983" y="-167.8" font-family="Times,serif" font-size="14.00" fill="#000000">AppModule</text>
</g>
<!-- AppRoutingModule&#45;&gt;AppModule -->
<g id="edge20" class="edge">
<title>AppRoutingModule&#45;&gt;AppModule</title>
<path fill="none" stroke="#000000" d="M1396.5376,-122.1223C1396.5376,-124.9729 1396.5376,-127 1396.5376,-127 1396.5376,-127 3955.4119,-127 3955.4119,-127 3955.4119,-127 3955.4119,-143.9561 3955.4119,-143.9561"/>
<polygon fill="#000000" stroke="#000000" points="3951.912,-143.956 3955.4119,-153.9561 3958.912,-143.9561 3951.912,-143.956"/>
</g>
<!-- NgrxStoreModule -->
<g id="node10" class="node">
<title>NgrxStoreModule</title>
<polygon fill="#8dd3c7" stroke="#000000" points="1734.8655,-122 1731.8655,-126 1710.8655,-126 1707.8655,-122 1617.1345,-122 1617.1345,-86 1734.8655,-86 1734.8655,-122"/>
<text text-anchor="middle" x="1676" y="-99.8" font-family="Times,serif" font-size="14.00" fill="#000000">NgrxStoreModule</text>
</g>
<!-- NgrxStoreModule&#45;&gt;AppClientModule -->
<g id="edge9" class="edge">
<title>NgrxStoreModule&#45;&gt;AppClientModule</title>
<path fill="none" stroke="#000000" d="M1676,-122.3802C1676,-146.2785 1676,-185 1676,-185 1676,-185 991.1651,-185 991.1651,-185"/>
<polygon fill="#000000" stroke="#000000" points="991.1652,-181.5001 981.1651,-185 991.1651,-188.5001 991.1652,-181.5001"/>
</g>
<!-- NgrxStoreModule&#45;&gt;AppModule -->
<g id="edge21" class="edge">
<title>NgrxStoreModule&#45;&gt;AppModule</title>
<path fill="none" stroke="#000000" d="M1734.9879,-104C2064.7351,-104 3665.0246,-104 3665.0246,-104 3665.0246,-104 3665.0246,-178 3665.0246,-178 3665.0246,-178 3931.1033,-178 3931.1033,-178"/>
<polygon fill="#000000" stroke="#000000" points="3931.1033,-181.5001 3941.1033,-178 3931.1032,-174.5001 3931.1033,-181.5001"/>
</g>
<!-- SharedModule -->
<g id="node11" class="node">
<title>SharedModule</title>
<polygon fill="#8dd3c7" stroke="#000000" points="1599.4231,-122 1596.4231,-126 1575.4231,-126 1572.4231,-122 1500.5769,-122 1500.5769,-86 1599.4231,-86 1599.4231,-122"/>
<text text-anchor="middle" x="1550" y="-99.8" font-family="Times,serif" font-size="14.00" fill="#000000">SharedModule</text>
</g>
<!-- SharedModule&#45;&gt;AppClientModule -->
<g id="edge10" class="edge">
<title>SharedModule&#45;&gt;AppClientModule</title>
<path fill="none" stroke="#000000" d="M1586.0881,-122.0109C1586.0881,-144.4852 1586.0881,-180 1586.0881,-180 1586.0881,-180 990.9334,-180 990.9334,-180"/>
<polygon fill="#000000" stroke="#000000" points="990.9334,-176.5001 980.9334,-180 990.9334,-183.5001 990.9334,-176.5001"/>
</g>
<!-- SharedModule&#45;&gt;AppModule -->
<g id="edge22" class="edge">
<title>SharedModule&#45;&gt;AppModule</title>
<path fill="none" stroke="#000000" d="M1579.5267,-122.08C1579.5267,-123.8464 1579.5267,-125 1579.5267,-125 1579.5267,-125 3962.532,-125 3962.532,-125 3962.532,-125 3962.532,-143.963 3962.532,-143.963"/>
<polygon fill="#000000" stroke="#000000" points="3959.0321,-143.963 3962.532,-153.963 3966.0321,-143.963 3959.0321,-143.963"/>
</g>
<!-- ApolloAngularModule  -->
<g id="node30" class="node">
<title>ApolloAngularModule </title>
<polygon fill="#fb8072" stroke="#000000" points="2041.8101,-190 1894.1899,-190 1894.1899,-154 2041.8101,-154 2041.8101,-190"/>
<text text-anchor="middle" x="1968" y="-167.8" font-family="Times,serif" font-size="14.00" fill="#000000">ApolloAngularModule </text>
</g>
<!-- SharedModule&#45;&gt;ApolloAngularModule  -->
<g id="edge32" class="edge">
<title>SharedModule&#45;&gt;ApolloAngularModule </title>
<path fill="none" stroke="#000000" stroke-dasharray="5,2" d="M1546.7193,-122.1467C1546.7193,-135.7395 1546.7193,-152 1546.7193,-152 1546.7193,-152 1968,-152 1968,-152 1968,-152 1968,-152.1846 1968,-152.1846"/>
<polygon fill="#000000" stroke="#000000" points="1964.5006,-143.8455 1968,-153.8457 1971.5006,-143.8459 1964.5006,-143.8455"/>
</g>
<!-- CapitalizePipe  -->
<g id="node31" class="node">
<title>CapitalizePipe </title>
<polygon fill="#fb8072" stroke="#000000" points="1876.6453,-190 1775.3547,-190 1775.3547,-154 1876.6453,-154 1876.6453,-190"/>
<text text-anchor="middle" x="1826" y="-167.8" font-family="Times,serif" font-size="14.00" fill="#000000">CapitalizePipe </text>
</g>
<!-- SharedModule&#45;&gt;CapitalizePipe  -->
<g id="edge33" class="edge">
<title>SharedModule&#45;&gt;CapitalizePipe </title>
<path fill="none" stroke="#000000" stroke-dasharray="5,2" d="M1592.6496,-122.027C1592.6496,-138.3976 1592.6496,-160 1592.6496,-160 1592.6496,-160 1765.3664,-160 1765.3664,-160"/>
<polygon fill="#000000" stroke="#000000" points="1765.3665,-163.5001 1775.3664,-160 1765.3664,-156.5001 1765.3665,-163.5001"/>
</g>
<!-- EnDatePipe  -->
<g id="node32" class="node">
<title>EnDatePipe </title>
<polygon fill="#fb8072" stroke="#000000" points="2706.3676,-190 2619.6324,-190 2619.6324,-154 2706.3676,-154 2706.3676,-190"/>
<text text-anchor="middle" x="2663" y="-167.8" font-family="Times,serif" font-size="14.00" fill="#000000">EnDatePipe </text>
</g>
<!-- SharedModule&#45;&gt;EnDatePipe  -->
<g id="edge34" class="edge">
<title>SharedModule&#45;&gt;EnDatePipe </title>
<path fill="none" stroke="#000000" stroke-dasharray="5,2" d="M1572.9652,-122.1274C1572.9652,-132.7109 1572.9652,-144 1572.9652,-144 1572.9652,-144 2663,-144 2663,-144 2663,-144 2663,-144.9793 2663,-144.9793"/>
<polygon fill="#000000" stroke="#000000" points="2659.5001,-143.793 2663,-153.793 2666.5001,-143.7931 2659.5001,-143.793"/>
</g>
<!-- FormControlErrorsDirective  -->
<g id="node33" class="node">
<title>FormControlErrorsDirective </title>
<polygon fill="#fb8072" stroke="#000000" points="2601.6743,-190 2422.3257,-190 2422.3257,-154 2601.6743,-154 2601.6743,-190"/>
<text text-anchor="middle" x="2512" y="-167.8" font-family="Times,serif" font-size="14.00" fill="#000000">FormControlErrorsDirective </text>
</g>
<!-- SharedModule&#45;&gt;FormControlErrorsDirective  -->
<g id="edge35" class="edge">
<title>SharedModule&#45;&gt;FormControlErrorsDirective </title>
<path fill="none" stroke="#000000" stroke-dasharray="5,2" d="M1566.4037,-122.0555C1566.4037,-133.439 1566.4037,-146 1566.4037,-146 1566.4037,-146 2512,-146 2512,-146 2512,-146 2512,-146.7942 2512,-146.7942"/>
<polygon fill="#000000" stroke="#000000" points="2508.5001,-143.9421 2512,-153.9421 2515.5001,-143.9422 2508.5001,-143.9421"/>
</g>
<!-- SpinnerComponent  -->
<g id="node34" class="node">
<title>SpinnerComponent </title>
<polygon fill="#fb8072" stroke="#000000" points="2404.3814,-190 2275.6186,-190 2275.6186,-154 2404.3814,-154 2404.3814,-190"/>
<text text-anchor="middle" x="2340" y="-167.8" font-family="Times,serif" font-size="14.00" fill="#000000">SpinnerComponent </text>
</g>
<!-- SharedModule&#45;&gt;SpinnerComponent  -->
<g id="edge36" class="edge">
<title>SharedModule&#45;&gt;SpinnerComponent </title>
<path fill="none" stroke="#000000" stroke-dasharray="5,2" d="M1559.8422,-122.1505C1559.8422,-134.2708 1559.8422,-148 1559.8422,-148 1559.8422,-148 2340,-148 2340,-148 2340,-148 2340,-148.581 2340,-148.581"/>
<polygon fill="#000000" stroke="#000000" points="2336.5002,-143.8097 2340,-153.8097 2343.5002,-143.8098 2336.5002,-143.8097"/>
</g>
<!-- TextTypingAnimationDirective  -->
<g id="node35" class="node">
<title>TextTypingAnimationDirective </title>
<polygon fill="#fb8072" stroke="#000000" points="2257.5679,-190 2060.4321,-190 2060.4321,-154 2257.5679,-154 2257.5679,-190"/>
<text text-anchor="middle" x="2159" y="-167.8" font-family="Times,serif" font-size="14.00" fill="#000000">TextTypingAnimationDirective </text>
</g>
<!-- SharedModule&#45;&gt;TextTypingAnimationDirective  -->
<g id="edge37" class="edge">
<title>SharedModule&#45;&gt;TextTypingAnimationDirective </title>
<path fill="none" stroke="#000000" stroke-dasharray="5,2" d="M1553.2807,-122.1804C1553.2807,-135.0382 1553.2807,-150 1553.2807,-150 1553.2807,-150 2159,-150 2159,-150 2159,-150 2159,-150.3832 2159,-150.3832"/>
<polygon fill="#000000" stroke="#000000" points="2155.5003,-143.832 2159,-153.8321 2162.5003,-143.8322 2155.5003,-143.832"/>
</g>
<!-- AuthService -->
<g id="node12" class="node">
<title>AuthService</title>
<ellipse fill="#fdb462" stroke="#000000" cx="1271" cy="-104" rx="59.1083" ry="18"/>
<text text-anchor="middle" x="1271" y="-99.8" font-family="Times,serif" font-size="14.00" fill="#000000">AuthService</text>
</g>
<!-- AuthService&#45;&gt;AppClientModule -->
<g id="edge11" class="edge">
<title>AuthService&#45;&gt;AppClientModule</title>
<path fill="none" stroke="#000000" d="M1290.7679,-120.9966C1290.7679,-140.552 1290.7679,-170 1290.7679,-170 1290.7679,-170 991.249,-170 991.249,-170"/>
<polygon fill="#000000" stroke="#000000" points="991.249,-166.5001 981.249,-170 991.2489,-173.5001 991.249,-166.5001"/>
</g>
<!-- AuthService&#45;&gt;AppModule -->
<g id="edge25" class="edge">
<title>AuthService&#45;&gt;AppModule</title>
<path fill="none" stroke="#000000" d="M1251.2321,-121.0898C1251.2321,-125.4844 1251.2321,-129 1251.2321,-129 1251.2321,-129 3948.2919,-129 3948.2919,-129 3948.2919,-129 3948.2919,-143.5146 3948.2919,-143.5146"/>
<polygon fill="#000000" stroke="#000000" points="3944.792,-143.5145 3948.2919,-153.5146 3951.792,-143.5146 3944.792,-143.5145"/>
</g>
<!-- TodoService -->
<g id="node13" class="node">
<title>TodoService</title>
<ellipse fill="#fdb462" stroke="#000000" cx="1133" cy="-104" rx="60.2537" ry="18"/>
<text text-anchor="middle" x="1133" y="-99.8" font-family="Times,serif" font-size="14.00" fill="#000000">TodoService</text>
</g>
<!-- TodoService&#45;&gt;AppClientModule -->
<g id="edge12" class="edge">
<title>TodoService&#45;&gt;AppClientModule</title>
<path fill="none" stroke="#000000" d="M1133,-122.302C1133,-140.2699 1133,-165 1133,-165 1133,-165 991.0558,-165 991.0558,-165"/>
<polygon fill="#000000" stroke="#000000" points="991.0559,-161.5001 981.0558,-165 991.0558,-168.5001 991.0559,-161.5001"/>
</g>
<!-- AppComponent -->
<g id="node14" class="node">
<title>AppComponent</title>
<polygon fill="#ffffb3" stroke="#000000" points="4099.9399,-122 3994.0601,-122 3994.0601,-86 4099.9399,-86 4099.9399,-122"/>
<text text-anchor="middle" x="4047" y="-99.8" font-family="Times,serif" font-size="14.00" fill="#000000">AppComponent</text>
</g>
<!-- AppComponent&#45;&gt;AppModule -->
<g id="edge13" class="edge">
<title>AppComponent&#45;&gt;AppModule</title>
<path fill="none" stroke="#000000" d="M4009.5544,-122.2228C4009.5544,-122.2228 4009.5544,-143.7269 4009.5544,-143.7269"/>
<polygon fill="#000000" stroke="#000000" points="4006.0544,-143.7269 4009.5544,-153.7269 4013.0544,-143.727 4006.0544,-143.7269"/>
</g>
<!-- HomeComponent -->
<g id="node15" class="node">
<title>HomeComponent</title>
<polygon fill="#ffffb3" stroke="#000000" points="3976.5451,-122 3861.4549,-122 3861.4549,-86 3976.5451,-86 3976.5451,-122"/>
<text text-anchor="middle" x="3919" y="-99.8" font-family="Times,serif" font-size="14.00" fill="#000000">HomeComponent</text>
</g>
<!-- HomeComponent&#45;&gt;AppModule -->
<g id="edge14" class="edge">
<title>HomeComponent&#45;&gt;AppModule</title>
<path fill="none" stroke="#000000" d="M3969.652,-122.2228C3969.652,-122.2228 3969.652,-143.7269 3969.652,-143.7269"/>
<polygon fill="#000000" stroke="#000000" points="3966.1521,-143.7269 3969.652,-153.7269 3973.1521,-143.727 3966.1521,-143.7269"/>
</g>
<!-- ModalWindowConfirmComponent -->
<g id="node16" class="node">
<title>ModalWindowConfirmComponent</title>
<polygon fill="#ffffb3" stroke="#000000" points="5025.5335,-122 4812.4665,-122 4812.4665,-86 5025.5335,-86 5025.5335,-122"/>
<text text-anchor="middle" x="4919" y="-99.8" font-family="Times,serif" font-size="14.00" fill="#000000">ModalWindowConfirmComponent</text>
</g>
<!-- ModalWindowConfirmComponent&#45;&gt;AppModule -->
<g id="edge15" class="edge">
<title>ModalWindowConfirmComponent&#45;&gt;AppModule</title>
<path fill="none" stroke="#000000" d="M4919,-122.1532C4919,-145.7566 4919,-184 4919,-184 4919,-184 4034.7309,-184 4034.7309,-184"/>
<polygon fill="#000000" stroke="#000000" points="4034.7309,-180.5001 4024.7309,-184 4034.7309,-187.5001 4034.7309,-180.5001"/>
</g>
<!-- ModalWindowMessageComponent -->
<g id="node17" class="node">
<title>ModalWindowMessageComponent</title>
<polygon fill="#ffffb3" stroke="#000000" points="4794.5716,-122 4579.4284,-122 4579.4284,-86 4794.5716,-86 4794.5716,-122"/>
<text text-anchor="middle" x="4687" y="-99.8" font-family="Times,serif" font-size="14.00" fill="#000000">ModalWindowMessageComponent</text>
</g>
<!-- ModalWindowMessageComponent&#45;&gt;AppModule -->
<g id="edge16" class="edge">
<title>ModalWindowMessageComponent&#45;&gt;AppModule</title>
<path fill="none" stroke="#000000" d="M4687,-122.2921C4687,-144.2057 4687,-178 4687,-178 4687,-178 4034.6698,-178 4034.6698,-178"/>
<polygon fill="#000000" stroke="#000000" points="4034.6698,-174.5001 4024.6698,-178 4034.6697,-181.5001 4034.6698,-174.5001"/>
</g>
<!-- PageNotFoundComponent -->
<g id="node18" class="node">
<title>PageNotFoundComponent</title>
<polygon fill="#ffffb3" stroke="#000000" points="4561.8243,-122 4396.1757,-122 4396.1757,-86 4561.8243,-86 4561.8243,-122"/>
<text text-anchor="middle" x="4479" y="-99.8" font-family="Times,serif" font-size="14.00" fill="#000000">PageNotFoundComponent</text>
</g>
<!-- PageNotFoundComponent&#45;&gt;AppModule -->
<g id="edge17" class="edge">
<title>PageNotFoundComponent&#45;&gt;AppModule</title>
<path fill="none" stroke="#000000" d="M4479,-122.2228C4479,-142.3652 4479,-172 4479,-172 4479,-172 4034.8612,-172 4034.8612,-172"/>
<polygon fill="#000000" stroke="#000000" points="4034.8612,-168.5001 4024.8612,-172 4034.8612,-175.5001 4034.8612,-168.5001"/>
</g>
<!-- SignInComponent -->
<g id="node19" class="node">
<title>SignInComponent</title>
<polygon fill="#ffffb3" stroke="#000000" points="4378.1667,-122 4259.8333,-122 4259.8333,-86 4378.1667,-86 4378.1667,-122"/>
<text text-anchor="middle" x="4319" y="-99.8" font-family="Times,serif" font-size="14.00" fill="#000000">SignInComponent</text>
</g>
<!-- SignInComponent&#45;&gt;AppModule -->
<g id="edge18" class="edge">
<title>SignInComponent&#45;&gt;AppModule</title>
<path fill="none" stroke="#000000" d="M4319,-122.2667C4319,-140.5552 4319,-166 4319,-166 4319,-166 4034.8753,-166 4034.8753,-166"/>
<polygon fill="#000000" stroke="#000000" points="4034.8753,-162.5001 4024.8753,-166 4034.8752,-169.5001 4034.8753,-162.5001"/>
</g>
<!-- SignUpComponent -->
<g id="node20" class="node">
<title>SignUpComponent</title>
<polygon fill="#ffffb3" stroke="#000000" points="4242.1123,-122 4117.8877,-122 4117.8877,-86 4242.1123,-86 4242.1123,-122"/>
<text text-anchor="middle" x="4180" y="-99.8" font-family="Times,serif" font-size="14.00" fill="#000000">SignUpComponent</text>
</g>
<!-- SignUpComponent&#45;&gt;AppModule -->
<g id="edge19" class="edge">
<title>SignUpComponent&#45;&gt;AppModule</title>
<path fill="none" stroke="#000000" d="M4180,-122.027C4180,-138.3976 4180,-160 4180,-160 4180,-160 4034.7786,-160 4034.7786,-160"/>
<polygon fill="#000000" stroke="#000000" points="4034.7787,-156.5001 4024.7786,-160 4034.7786,-163.5001 4034.7787,-156.5001"/>
</g>
<!-- AppComponent  -->
<g id="node23" class="node">
<title>AppComponent </title>
<polygon fill="#80b1d3" stroke="#000000" points="4037.439,-258 3928.561,-258 3928.561,-222 4037.439,-222 4037.439,-258"/>
<text text-anchor="middle" x="3983" y="-235.8" font-family="Times,serif" font-size="14.00" fill="#000000">AppComponent </text>
</g>
<!-- AppModule&#45;&gt;AppComponent  -->
<g id="edge24" class="edge">
<title>AppModule&#45;&gt;AppComponent </title>
<path fill="none" stroke="#000000" stroke-dasharray="1,5" d="M3983,-190.2228C3983,-190.2228 3983,-211.7269 3983,-211.7269"/>
<polygon fill="#000000" stroke="#000000" points="3979.5001,-211.7269 3983,-221.7269 3986.5001,-211.727 3979.5001,-211.7269"/>
</g>
<!-- SharedProvidersModule -->
<g id="node22" class="node">
<title>SharedProvidersModule</title>
<polygon fill="#8dd3c7" stroke="#000000" points="3837.0758,-122 3834.0758,-126 3813.0758,-126 3810.0758,-122 3684.9242,-122 3684.9242,-86 3837.0758,-86 3837.0758,-122"/>
<text text-anchor="middle" x="3761" y="-99.8" font-family="Times,serif" font-size="14.00" fill="#000000">SharedProvidersModule</text>
</g>
<!-- SharedProvidersModule&#45;&gt;AppModule -->
<g id="edge23" class="edge">
<title>SharedProvidersModule&#45;&gt;AppModule</title>
<path fill="none" stroke="#000000" d="M3761,-122.2667C3761,-140.5552 3761,-166 3761,-166 3761,-166 3931.2435,-166 3931.2435,-166"/>
<polygon fill="#000000" stroke="#000000" points="3931.2435,-169.5001 3941.2435,-166 3931.2435,-162.5001 3931.2435,-169.5001"/>
</g>
<!-- CapitalizePipe -->
<g id="node24" class="node">
<title>CapitalizePipe</title>
<polygon fill="#ffffb3" stroke="#000000" points="3095.6458,-190 2998.3542,-190 2998.3542,-154 3095.6458,-154 3095.6458,-190"/>
<text text-anchor="middle" x="3047" y="-167.8" font-family="Times,serif" font-size="14.00" fill="#000000">CapitalizePipe</text>
</g>
<!-- CapitalizePipe&#45;&gt;SharedModule -->
<g id="edge26" class="edge">
<title>CapitalizePipe&#45;&gt;SharedModule</title>
<path fill="none" stroke="#000000" d="M3047,-153.68C3047,-145.2117 3047,-137 3047,-137 3047,-137 1520.4733,-137 1520.4733,-137 1520.4733,-137 1520.4733,-132.0449 1520.4733,-132.0449"/>
<polygon fill="#000000" stroke="#000000" points="1523.9734,-132.0448 1520.4733,-122.0449 1516.9734,-132.0449 1523.9734,-132.0448"/>
</g>
<!-- EnDatePipe -->
<g id="node25" class="node">
<title>EnDatePipe</title>
<polygon fill="#ffffb3" stroke="#000000" points="2980.3669,-190 2897.6331,-190 2897.6331,-154 2980.3669,-154 2980.3669,-190"/>
<text text-anchor="middle" x="2939" y="-167.8" font-family="Times,serif" font-size="14.00" fill="#000000">EnDatePipe</text>
</g>
<!-- EnDatePipe&#45;&gt;SharedModule -->
<g id="edge27" class="edge">
<title>EnDatePipe&#45;&gt;SharedModule</title>
<path fill="none" stroke="#000000" d="M2939,-153.7566C2939,-146.5703 2939,-140 2939,-140 2939,-140 1513.9119,-140 1513.9119,-140 1513.9119,-140 1513.9119,-132.4218 1513.9119,-132.4218"/>
<polygon fill="#000000" stroke="#000000" points="1517.412,-132.4218 1513.9119,-122.4218 1510.412,-132.4219 1517.412,-132.4218"/>
</g>
<!-- FormControlErrorsDirective -->
<g id="node26" class="node">
<title>FormControlErrorsDirective</title>
<polygon fill="#ffffb3" stroke="#000000" points="3645.1741,-190 3468.8259,-190 3468.8259,-154 3645.1741,-154 3645.1741,-190"/>
<text text-anchor="middle" x="3557" y="-167.8" font-family="Times,serif" font-size="14.00" fill="#000000">FormControlErrorsDirective</text>
</g>
<!-- FormControlErrorsDirective&#45;&gt;SharedModule -->
<g id="edge28" class="edge">
<title>FormControlErrorsDirective&#45;&gt;SharedModule</title>
<path fill="none" stroke="#000000" d="M3557,-153.8975C3557,-142.9141 3557,-131 3557,-131 3557,-131 1540.1578,-131 1540.1578,-131 1540.1578,-131 1540.1578,-130.1159 1540.1578,-130.1159"/>
<polygon fill="#000000" stroke="#000000" points="1543.6579,-132.1591 1540.1578,-122.1592 1536.6579,-132.1592 1543.6579,-132.1591"/>
</g>
<!-- SpinnerComponent -->
<g id="node27" class="node">
<title>SpinnerComponent</title>
<polygon fill="#ffffb3" stroke="#000000" points="3450.3809,-190 3325.6191,-190 3325.6191,-154 3450.3809,-154 3450.3809,-190"/>
<text text-anchor="middle" x="3388" y="-167.8" font-family="Times,serif" font-size="14.00" fill="#000000">SpinnerComponent</text>
</g>
<!-- SpinnerComponent&#45;&gt;SharedModule -->
<g id="edge29" class="edge">
<title>SpinnerComponent&#45;&gt;SharedModule</title>
<path fill="none" stroke="#000000" d="M3388,-153.8701C3388,-143.6855 3388,-133 3388,-133 3388,-133 1533.5963,-133 1533.5963,-133 1533.5963,-133 1533.5963,-131.9201 1533.5963,-131.9201"/>
<polygon fill="#000000" stroke="#000000" points="1537.0964,-132.2014 1533.5963,-122.2015 1530.0964,-132.2015 1537.0964,-132.2014"/>
</g>
<!-- TextTypingAnimationDirective -->
<g id="node28" class="node">
<title>TextTypingAnimationDirective</title>
<polygon fill="#ffffb3" stroke="#000000" points="3308.0674,-190 3113.9326,-190 3113.9326,-154 3308.0674,-154 3308.0674,-190"/>
<text text-anchor="middle" x="3211" y="-167.8" font-family="Times,serif" font-size="14.00" fill="#000000">TextTypingAnimationDirective</text>
</g>
<!-- TextTypingAnimationDirective&#45;&gt;SharedModule -->
<g id="edge30" class="edge">
<title>TextTypingAnimationDirective&#45;&gt;SharedModule</title>
<path fill="none" stroke="#000000" d="M3211,-153.9336C3211,-144.5413 3211,-135 3211,-135 3211,-135 1527.0348,-135 1527.0348,-135 1527.0348,-135 1527.0348,-132.0328 1527.0348,-132.0328"/>
<polygon fill="#000000" stroke="#000000" points="1530.5349,-132.0328 1527.0348,-122.0328 1523.5349,-132.0329 1530.5349,-132.0328"/>
</g>
<!-- ApolloAngularModule -->
<g id="node29" class="node">
<title>ApolloAngularModule</title>
<polygon fill="#8dd3c7" stroke="#000000" points="2874.3103,-190 2871.3103,-194 2850.3103,-194 2847.3103,-190 2729.6897,-190 2729.6897,-154 2874.3103,-154 2874.3103,-190"/>
<text text-anchor="middle" x="2802" y="-167.8" font-family="Times,serif" font-size="14.00" fill="#000000">ApolloAngularModule</text>
</g>
<!-- ApolloAngularModule&#45;&gt;SharedModule -->
<g id="edge31" class="edge">
<title>ApolloAngularModule&#45;&gt;SharedModule</title>
<path fill="none" stroke="#000000" d="M2802,-153.8568C2802,-147.5389 2802,-142 2802,-142 2802,-142 1507.3504,-142 1507.3504,-142 1507.3504,-142 1507.3504,-132.1097 1507.3504,-132.1097"/>
<polygon fill="#000000" stroke="#000000" points="1510.8505,-132.1096 1507.3504,-122.1097 1503.8505,-132.1097 1510.8505,-132.1096"/>
</g>
</g>
</svg>
